# AST/ASF file generated using VICON BodyLanguage
# -----------------------------------------------
:version 1.10
:name VICON
:units
  mass 1.0
  length 0.45
  angle deg
:documentation
   .ast/.asf automatically generated from VICON data using
   VICON BodyBuilder and BodyLanguage model FoxedUp or BRILLIANT.MOD
:root
   order TX TY TZ RX RY RZ
   axis XYZ
   position 0 0 0  
   orientation 0 0 0 
:bonedata
  begin
     id 1 
     name lhipjoint
     direction 0.606768 -0.715223 0.346827 
     length 2.41543 
     axis 0 0 0  XYZ
  end
  begin
     id 2 
     name lfemur
     direction 0.34202 -0.939693 0  
     length 7.2778  
     axis 0 0 20  XYZ
    dof rx ry rz
    limits (-160.0 20.0)
           (-70.0 70.0)
           (-60.0 70.0)
  end
  begin
     id 3 
     name ltibia
     direction 0.34202 -0.939693 0   
     length 7.61811   
     axis 0 0 20   XYZ
    dof rx
    limits (-10.0 170.0)
  end
  begin
     id 4 
     name lfoot
     direction 0.0823924 -0.226371 0.97055   
     length 2.33618   
     axis -90 7.62852e-016 20   XYZ
    dof rx rz
    limits (-45.0 90.0)
           (-70.0 20.0)
  end
  begin
     id 5 
     name ltoes
     direction 1.53554e-011 -4.21934e-011 1   
     length 1.17015   
     axis -90 7.62852e-016 20   XYZ
    dof rx
    limits (-90.0 20.0)
  end
  begin
     id 6 
     name rhipjoint
     direction -0.6077 -0.714582 0.346516   
     length 2.4176  
     axis 0 0 0  XYZ 
  end
  begin
     id 7 
     name rfemur
     direction -0.34202 -0.939693 0   
     length 7.28127   
     axis 0 0 -20   XYZ
    dof rx ry rz
    limits (-160.0 20.0)
           (-70.0 70.0)
           (-70.0 60.0)
  end
  begin
     id 8 
     name rtibia
     direction -0.34202 -0.939693 0   
     length 7.77648   
     axis 0 0 -20   XYZ
    dof rx
    limits (-10.0 170.0)
 end
 begin
     id 9 
     name rfoot
     direction -0.0809463 -0.222398 0.97159   
     length 2.37533  
     axis -90 -7.62852e-016 -20   XYZ
    dof rx rz
    limits (-45.0 90.0)
           (-20.0 70.0)
  end
  begin
     id 10 
     name rtoes
     direction -1.53568e-011 -4.21714e-011 1   
     length 1.18972   
     axis -90 -7.62852e-016 -20   XYZ
    dof rx
    limits (-90.0 20.0)
  end
  begin
     id 11 
     name lowerback
     direction 0.010968 0.991932 -0.126297   
     length 2.21698   
     axis 0 0 0   XYZ
    dof rx ry rz
    limits (-20.0 45.0)
           (-30.0 30.0)
           (-30.0 30.0)
  end
  begin
     id 12 
     name upperback
     direction 0.0167007 0.997503 -0.0686276   
     length 2.22371   
     axis 0 0 0   XYZ
    dof rx ry rz
    limits (-20.0 45.0)
           (-30.0 30.0)
           (-30.0 30.0)
  end
  begin
     id 13 
     name thorax
     direction 0.0111721 0.999885 -0.0102878   
     length 2.25242   
     axis 0 0 0   XYZ
    dof rx ry rz
    limits (-20.0 45.0)
           (-30.0 30.0)
           (-30.0 30.0)
  end
  begin
     id 14 
     name lowerneck
     direction -0.0120265 0.990428 0.137508   
     length 1.57674   
     axis 0 0 0   XYZ
    dof rx ry rz
    limits (-20.0 45.0)
           (-30.0 30.0)
           (-30.0 30.0)
  end
  begin
     id 15 
     name upperneck
     direction 0.0175669 0.998907 0.0433089   
     length 1.5618   
     axis 0 0 0   XYZ
    dof rx ry rz
    limits (-20.0 45.0)
           (-30.0 30.0)
           (-30.0 30.0)
  end
  begin
     id 16
     name head
     direction 0.00754609 0.99997 0.00185367  
     length 1.60579  
     axis 0 0 0   XYZ
    dof rx ry rz
    limits (-20.0 45.0)
           (-30.0 30.0)
           (-30.0 30.0)
  end
  begin
     id 17 
     name lclavicle
     direction 0.885866 0.429166 -0.176231  
     length 3.44967  
     axis 0 0 0   XYZ
    dof ry rz
    limits (-20.0 10.0)
           (0.0 20.0)
  end
  begin
     id 18 
     name lhumerus
     direction 1 -4.48973e-011 -1.90255e-027   
     length 5.20607   
     axis 180 -30 -90   XYZ
    dof rx ry rz
    limits (-60.0 90.0)
           (-90.0 90.0)
           (-90.0 90.0)
  end
  begin
     id 19
     name lradius
     direction 1 -4.48956e-011 9.87925e-027   
     length 3.39961   
     axis 180 -30 -90   XYZ
    dof rx
    limits (-10.0 170.0)
  end
  begin
     id 20
     name lwrist
     direction 1 -4.48985e-011 1.73247e-026   
     length 1.6998   
     axis -9.60847e-015 90 90   XYZ
    dof ry
    limits (-180.0 0.0)
 end
  begin
     id 21 
     name lhand
     direction 1 -4.48798e-011 3.46119e-026   
     length 0.519693   
     axis -2.21073e-014 90 90   XYZ
    dof rx rz
    limits (-90.0 90.0)
           (-45.0 45.0)
  end
  begin
     id 22 
     name lfingers
     direction 1 -4.48938e-011 6.92797e-026   
     length 0.41899   
     axis -4.42155e-014 90 90   XYZ
    dof rx
    limits (0.0 90.0)
  end
  begin
     id 23
     name lthumb
     direction 0.707107 -6.34952e-011 0.707107   
     length 0.601588   
     axis -90 45 6.0103e-014   XYZ
    dof rx rz
    limits (-45.0 45.0)
           (-45.0 45.0)
  end
  begin
     id 24 
     name rclavicle
     direction -0.866736 0.456792 -0.200276   
     length 3.45032  
     axis 0 0 0   XYZ 
    dof ry rz
    limits (-10.0 20.0)
           (-20.0 0.0)
  end
  begin
     id 25 
     name rhumerus
     direction -1 -4.4897e-011 8.65094e-028  
     length 5.32214   
     axis 180 30 90   XYZ
    dof rx ry rz
    limits (-90.0 60.0)
           (-90.0 90.0)
           (-90.0 90.0)
  end
  begin
     id 26 
     name rradius
     direction -1 -4.48987e-011 1.08427e-026   
     length 3.51208   
     axis 180 30 90   XYZ
    dof rx
    limits (-10.0 170.0)
  end
  begin
     id 27 
     name rwrist
     direction -1 -4.48961e-011 1.73222e-026   
     length 1.75604   
     axis -9.60847e-015 -90 -90   XYZ
    dof ry
    limits (-180.0 0.0)
  end
  begin
     id 28
     name rhand
     direction -1 -4.48895e-011 3.46314e-026   
     length 0.586681   
     axis -2.21073e-014 -90 -90   XYZ
    dof rx rz
    limits (-90.0 90.0)
           (-45.0 45.0)
  end
  begin
     id 29
     name rfingers
     direction -1 -4.48968e-011 6.92916e-026   
     length 0.472997   
     axis -4.42155e-014 -90 -90   XYZ
    dof rx
    limits (0.0 90.0)
  end
  begin
     id 30
     name rthumb
     direction -0.707107 -6.34848e-011 0.707107   
     length 0.679133   
     axis -90 -45 -6.0103e-014   XYZ
    dof rx rz
    limits (-45.0 45.0)
           (-45.0 45.0)
  end
:hierarchy
  begin
    root lhipjoint rhipjoint lowerback
    lhipjoint lfemur
    lfemur ltibia
    ltibia lfoot
    lfoot ltoes
    rhipjoint rfemur
    rfemur rtibia
    rtibia rfoot
    rfoot rtoes
    lowerback upperback
    upperback thorax
    thorax lowerneck lclavicle rclavicle
    lowerneck upperneck
    upperneck head
    lclavicle lhumerus
    lhumerus lradius
    lradius lwrist
    lwrist lhand lthumb
    lhand lfingers
    rclavicle rhumerus
    rhumerus rradius
    rradius rwrist
    rwrist rhand rthumb
    rhand rfingers
  end

#!OML:ASF H:\Dans Jumps\Project 1\Capture day 1\Session 1\subject.ASF
:FULLY-SPECIFIED
:DEGREES
1
root -0.271756 17.6102 -14.5189 10.4805 4.96025 -0.638828
lowerback 3.8882 -0.616355 1.68898
upperback 5.6762 -0.85889 2.52032
thorax 3.68847 -0.416968 1.65982
lowerneck -12.2543 -0.755791 -3.01316
upperneck 33.5536 -0.795722 1.56623
head 13.334 -0.501066 1.03474
rclavicle 2.54444e-014 -2.46493e-014
rhumerus -22.6567 -9.94409 -79.8063
rradius 28.0071
rwrist 22.7313
rhand -21.6875 -28.047
rfingers 7.12502
rthumb 4.71055 -57.9747
lclavicle 2.54444e-014 -2.46493e-014
lhumerus -20.3411 -8.03784 93.5126
lradius 21.5051
lwrist 18.5171
lhand -25.0322 -2.07487
lfingers 7.12502
lthumb 1.48048 27.8997
rfemur -19.9139 -4.88268 19.6547
rtibia 23.0864
rfoot -12.873 -0.875119
rtoes 10.2393
lfemur -24.2303 3.27339 -16.399
ltibia 28.5748
lfoot -8.94886 1.69138
ltoes -2.7809
2
root -0.253953 17.6076 -14.5059 10.5277 4.74537 -0.655383
lowerback 3.84145 -0.552748 1.69101
upperback 5.62743 -0.773062 2.45494
thorax 3.66097 -0.372806 1.59002
lowerneck -12.0932 -0.702096 -3.01304
upperneck 33.3472 -0.727238 1.58361
head 13.2074 -0.468456 1.04945
rclavicle 8.34896e-015 1.27222e-014
rhumerus -22.6804 -9.92471 -79.8084
rradius 27.881
rwrist 22.9003
rhand -21.5979 -27.9136
rfingers 7.12502
rthumb 4.79707 -57.8393
lclavicle 8.34896e-015 1.27222e-014
lhumerus -20.4439 -7.93918 93.274
lradius 21.4475
lwrist 18.1912
lhand -24.6563 -2.00249
lfingers 7.12502
lthumb 1.8435 27.9693
rfemur -19.9801 -4.75695 19.5957
rtibia 23.1663
rfoot -12.9734 -0.822787
rtoes 10.1612
lfemur -23.9729 3.40286 -16.39
ltibia 28.2249
lfoot -9.13449 1.58048
ltoes -3.47341
3
root -0.23661 17.6019 -14.4971 10.6077 4.53584 -0.696632
lowerback 3.74955 -0.510646 1.69614
upperback 5.62343 -0.718918 2.39858
thorax 3.70655 -0.344335 1.52781
lowerneck -12.136 -0.648004 -3.01766
upperneck 33.2241 -0.649051 1.59359
head 13.1613 -0.433377 1.06419
rclavicle -1.51076e-014 -3.49861e-014
rhumerus -22.6005 -9.87204 -79.8612
rradius 27.8193
rwrist 23.0908
rhand -21.3908 -27.8383
rfingers 7.12502
rthumb 4.997 -57.7594
lclavicle -1.51076e-014 -3.49861e-014
lhumerus -20.3438 -7.91854 93.0087
lradius 21.2213
lwrist 17.799
lhand -24.6407 -2.38217
lfingers 7.12502
lthumb 1.85856 27.5895
rfemur -20.2206 -4.61108 19.568
rtibia 23.4864
rfoot -13.1369 -0.7804
rtoes 10.0104
lfemur -23.8531 3.59267 -16.3672
ltibia 27.9899
lfoot -9.37352 1.42996
ltoes -4.16916
4
root -0.217621 17.5855 -14.4926 10.5965 4.26055 -0.788446
lowerback 3.80342 -0.454152 1.71228
upperback 5.618 -0.640928 2.35767
thorax 3.66863 -0.304177 1.47644
lowerneck -12.1093 -0.567836 -2.98892
upperneck 33.1137 -0.529528 1.55955
head 13.1043 -0.382016 1.06183
rclavicle -5.96354e-016 -4.77083e-015
rhumerus -22.479 -9.87103 -79.8949
rradius 27.6782
rwrist 23.4183
rhand -21.2477 -27.7578
rfingers 7.12502
rthumb 5.13518 -57.6755
lclavicle -5.96354e-016 -4.77083e-015
lhumerus -20.3031 -7.75873 92.7432
lradius 21.0984
lwrist 17.2466
lhand -24.5333 -1.98337
lfingers 7.12502
lthumb 1.96227 27.9874
rfemur -20.4209 -4.35057 19.5753
rtibia 23.828
rfoot -13.2584 -0.844931
rtoes 9.50169
lfemur -23.6533 3.81934 -16.3075
ltibia 27.7663
lfoot -9.66838 1.37387
ltoes -4.69973
5
root -0.198924 17.5708 -14.4873 10.6002 4.00206 -0.857347
lowerback 3.82931 -0.398807 1.71567
upperback 5.61541 -0.565469 2.31006
thorax 3.64961 -0.265561 1.42504
lowerneck -12.0845 -0.501075 -2.9732
upperneck 32.994 -0.431663 1.54234
head 13.0447 -0.339353 1.06506
rclavicle -2.78299e-015 -1.11319e-014
rhumerus -22.363 -9.86178 -79.9279
rradius 27.5585
rwrist 23.695
rhand -21.0634 -27.6693
rfingers 7.12502
rthumb 5.31317 -57.5827
lclavicle -2.78299e-015 -1.11319e-014
lhumerus -20.2455 -7.64564 92.4812
lradius 20.9421
lwrist 16.7726
lhand -24.4276 -1.83931
lfingers 7.12502
lthumb 2.06437 28.1304
rfemur -20.6827 -4.11083 19.5583
rtibia 24.2905
rfoot -13.4465 -0.891537
rtoes 9.15689
lfemur -23.4868 4.03228 -16.2753
ltibia 27.5957
lfoot -9.99649 1.3265
ltoes -5.27007
6
root -0.179736 17.5521 -14.4837 10.5772 3.72109 -0.933318
lowerback 3.89159 -0.339911 1.71074
upperback 5.62567 -0.484654 2.26507
thorax 3.62376 -0.224681 1.38113
lowerneck -12.0704 -0.432011 -2.95105
upperneck 32.8875 -0.328894 1.5155
head 12.9932 -0.295024 1.06421
rclavicle -7.95139e-015 5.56597e-015
rhumerus -22.2108 -9.87283 -79.9596
rradius 27.433
rwrist 24.004
rhand -20.8471 -27.5631
rfingers 7.12502
rthumb 5.522 -57.4712
lclavicle -7.95139e-015 5.56597e-015
lhumerus -20.1594 -7.52175 92.2174
lradius 20.7781
lwrist 16.2998
lhand -24.3819 -1.72632
lfingers 7.12502
lthumb 2.10849 28.243
rfemur -20.9874 -3.83461 19.5412
rtibia 24.8685
rfoot -13.6612 -0.963366
rtoes 8.76746
lfemur -23.3266 4.27121 -16.2535
ltibia 27.4865
lfoot -10.376 1.33844
ltoes -5.77199
7
root -0.160231 17.5297 -14.4816 10.5247 3.4116 -1.01548
lowerback 3.98832 -0.274759 1.69273
upperback 5.65072 -0.395152 2.22381
thorax 3.59417 -0.180075 1.34839
lowerneck -12.0555 -0.360723 -2.92315
upperneck 32.7867 -0.22093 1.47733
head 12.9439 -0.249169 1.05869
rclavicle -2.5842e-015 1.11319e-014
rhumerus -22.0237 -9.90374 -79.9881
rradius 27.3061
rwrist 24.3317
rhand -20.6325 -27.458
rfingers 7.12502
rthumb 5.72913 -57.3606
lclavicle -2.5842e-015 1.11319e-014
lhumerus -20.0505 -7.37744 91.9537
lradius 20.6174
lwrist 15.8425
lhand -24.3939 -1.63255
lfingers 7.12502
lthumb 2.09694 28.3369
rfemur -21.3121 -3.5247 19.5248
rtibia 25.5197
rfoot -13.8812 -1.05698
rtoes 8.31814
lfemur -23.1506 4.53549 -16.2457
ltibia 27.4086
lfoot -10.7838 1.43255
ltoes -6.18412
8
root -0.140373 17.5041 -14.4806 10.4442 3.08324 -1.10052
lowerback 4.11239 -0.207497 1.66243
upperback 5.69279 -0.302793 2.18519
thorax 3.56718 -0.134562 1.32516
lowerneck -12.0438 -0.286279 -2.88856
upperneck 32.6932 -0.107024 1.42918
head 12.8985 -0.201193 1.04902
rclavicle 1.98785e-015 -1.43125e-014
rhumerus -21.8035 -9.96152 -80.0153
rradius 27.1846
rwrist 24.6734
rhand -20.4231 -27.343
rfingers 7.12502
rthumb 5.93137 -57.24
lclavicle 1.98785e-015 -1.43125e-014
lhumerus -19.9182 -7.20702 91.6866
lradius 20.4587
lwrist 15.3954
lhand -24.4641 -1.6004
lfingers 7.12502
lthumb 2.02913 28.3697
rfemur -21.6581 -3.20823 19.5101
rtibia 26.2462
rfoot -14.1099 -1.16041
rtoes 7.78141
lfemur -22.9669 4.81972 -16.2588
ltibia 27.3726
lfoot -11.2114 1.62765
ltoes -6.55797
9
root -0.120556 17.476 -14.4806 10.34 2.74188 -1.19035
lowerback 4.25441 -0.141113 1.61869
upperback 5.75334 -0.212025 2.15117
thorax 3.54958 -0.0904338 1.3141
lowerneck -12.0404 -0.20695 -2.84471
upperneck 32.61 0.0153234 1.36935
head 12.8593 -0.149952 1.0345
rclavicle 5.76476e-015 1.27222e-014
rhumerus -21.552 -10.0415 -80.0457
rradius 27.0797
rwrist 25.0166
rhand -20.2497 -27.2525
rfingers 7.12502
rthumb 6.09872 -57.1447
lclavicle 5.76476e-015 1.27222e-014
lhumerus -19.7587 -7.00893 91.4153
lradius 20.3064
lwrist 14.9728
lhand -24.6022 -1.65543
lfingers 7.12502
lthumb 1.89581 28.3159
rfemur -22.0085 -2.89095 19.5022
rtibia 27.0125
rfoot -14.3378 -1.26789
rtoes 7.18961
lfemur -22.7793 5.11792 -16.2897
ltibia 27.3715
lfoot -11.6321 1.93708
ltoes -6.96483
